o Extruded.001
v 0 0.04552165 0.06800000
v 0.00782521 0.04718495 0.06800000
v 0.00647216 0.05022395 0.06800000
v 0.00400001 0.05244988 0.06800000
v 0.00083623 0.05347785 0.06800000
v -0.00247215 0.05313013 0.06800000
v -0.00535306 0.05146683 0.06800000
v -0.00730839 0.04877555 0.06800000
v -0.00800003 0.04552165 0.06800000
v -0.00730839 0.04226774 0.06800000
v -0.00535306 0.03957647 0.06800000
v -0.00247215 0.03791317 0.06800000
v 0.00083623 0.03756544 0.06800000
v 0.00400001 0.03859342 0.06800000
v 0.00647216 0.04081935 0.06800000
v 0.00782521 0.04385835 0.06800000
v 0.00800000 0.04550000 0.06800000
v 0.00800000 0.04550000 0
v 0.00782521 0.04718495 0
v -0.00730839 0.04226774 0
v -0.00800003 0.04552165 0
v -0.00535306 0.03957647 0
v -0.00247215 0.03791317 0
v 0.00083623 0.03756544 0
v 0.00400001 0.03859342 0
v 0.00647216 0.04081935 0
v 0.00782521 0.04385835 0
v 0.00647216 0.05022395 0
v 0.00400001 0.05244988 0
v 0.00083623 0.05347785 0
v -0.00247215 0.05313013 0
v -0.00535306 0.05146683 0
v -0.00730839 0.04877555 0
v 0 0.04552165 0
vt 0.50000000 0.50000000
vt 0.98327452 0.60272318
vt 0.89971197 0.79040772
vt 0.74703556 0.92787814
vt 0.55164450 0.99136460
vt 0.34732363 0.96988958
vt 0.16940187 0.86716640
vt 0.04864355 0.70095682
vt 0.00592885 0.50000000
vt 0.04864355 0.29904315
vt 0.16940187 0.13283359
vt 0.34732363 0.03011042
vt 0.55164450 0.00863543
vt 0.74703556 0.07212184
vt 0.89971197 0.20959227
vt 0.98327452 0.39727682
vt 0.99406934 0.49866295
vt 0.50043070 1
vt 0.46666667 1
vt 0.46666667 0
vt 0.50043070 0
vt 0.93333334 1
vt 0.93333334 0
vt 1 0
vt 1 1
vt 0.86666667 1
vt 0.86666667 0
vt 0.80000001 1
vt 0.80000001 0
vt 0.73333335 1
vt 0.73333335 0
vt 0.66666669 1
vt 0.66666669 0
vt 0.60000002 1
vt 0.60000002 0
vt 0.53333336 1
vt 0.53333336 0
vt 0.40000001 1
vt 0.40000001 0
vt 0.33333334 1
vt 0.33333334 0
vt 0.26666668 1
vt 0.26666668 0
vt 0.20000000 1
vt 0.20000000 0
vt 0.13333334 1
vt 0.13333334 0
vt 0.06666667 1
vt 0.06666667 0
vt 0.50000000 0.50000000
vt 0.98327452 0.39727682
vt 0.89971197 0.20959227
vt 0.74703556 0.07212184
vt 0.55164450 0.00863543
vt 0.34732363 0.03011042
vt 0.16940187 0.13283359
vt 0.04864355 0.29904315
vt 0.00592885 0.50000000
vt 0.04864355 0.70095682
vt 0.16940187 0.86716640
vt 0.34732363 0.96988958
vt 0.55164450 0.99136460
vt 0.74703556 0.92787814
vt 0.89971197 0.79040772
vt 0.98327452 0.60272318
vt 0.99406934 0.49866295
vn 0 0 1
vn 0 0 1
vn 0 0 1
vn 0 0 1
vn 0 0 1
vn 0 0 1
vn 0 0 1
vn 0 0 1
vn 0 0 1
vn 0 0 1
vn 0 0 1
vn 0 0 1
vn 0 0 1
vn 0 0 1
vn 0 0 1
vn 0 0 1
vn 0 0 1
vn 0.99999636 -0.00270620 0
vn 0.97814763 0.20791169 0
vn 0.97814763 0.20791169 0
vn 0.99999636 -0.00270620 0
vn -0.91354543 -0.40673664 0
vn -0.91354543 -0.40673664 0
vn -1 0 0
vn -1 0 0
vn -0.66913062 -0.74314481 0
vn -0.66913062 -0.74314481 0
vn -0.30901700 -0.95105654 0
vn -0.30901700 -0.95105654 0
vn 0.10452846 -0.99452192 0
vn 0.10452846 -0.99452192 0
vn 0.50000000 -0.86602539 0
vn 0.50000000 -0.86602539 0
vn 0.80901700 -0.58778524 0
vn 0.80901700 -0.58778524 0
vn 0.97814763 -0.20791169 0
vn 0.97814763 -0.20791169 0
vn 0.80901700 0.58778524 0
vn 0.80901700 0.58778524 0
vn 0.50000000 0.86602539 0
vn 0.50000000 0.86602539 0
vn 0.10452846 0.99452192 0
vn 0.10452846 0.99452192 0
vn -0.30901700 0.95105654 0
vn -0.30901700 0.95105654 0
vn -0.66913062 0.74314481 0
vn -0.66913062 0.74314481 0
vn -0.91354543 0.40673664 0
vn -0.91354543 0.40673664 0
vn 0 0 -1
vn 0 0 -1
vn 0 0 -1
vn 0 0 -1
vn 0 0 -1
vn 0 0 -1
vn 0 0 -1
vn 0 0 -1
vn 0 0 -1
vn 0 0 -1
vn 0 0 -1
vn 0 0 -1
vn 0 0 -1
vn 0 0 -1
vn 0 0 -1
vn 0 0 -1
vn 0 0 -1
f 1/1/1 2/2/2 3/3/3 4/4/4
f 4/4/4 5/5/5 6/6/6 1/1/1
f 6/6/6 7/7/7 8/8/8 1/1/1
f 8/8/8 9/9/9 10/10/10 1/1/1
f 10/10/10 11/11/11 12/12/12 1/1/1
f 12/12/12 13/13/13 14/14/14 1/1/1
f 14/14/14 15/15/15 16/16/16 1/1/1
f 16/16/16 17/17/17 2/2/2 1/1/1
f 18/18/18 19/19/19 2/20/20 17/21/21
f 20/22/22 10/23/23 9/24/24 21/25/25
f 22/26/26 11/27/27 10/23/23 20/22/22
f 23/28/28 12/29/29 11/27/27 22/26/26
f 24/30/30 13/31/31 12/29/29 23/28/28
f 25/32/32 14/33/33 13/31/31 24/30/30
f 26/34/34 15/35/35 14/33/33 25/32/32
f 27/36/36 16/37/37 15/35/35 26/34/34
f 17/21/21 16/37/37 27/36/36 18/18/18
f 28/38/38 3/39/39 2/20/20 19/19/19
f 29/40/40 4/41/41 3/39/39 28/38/38
f 30/42/42 5/43/43 4/41/41 29/40/40
f 31/44/44 6/45/45 5/43/43 30/42/42
f 32/46/46 7/47/47 6/45/45 31/44/44
f 33/48/48 8/49/49 7/47/47 32/46/46
f 21/25/25 9/24/24 8/49/49 33/48/48
f 34/50/50 27/51/51 26/52/52 25/53/53
f 25/53/53 24/54/54 23/55/55 34/50/50
f 23/55/55 22/56/56 20/57/57 34/50/50
f 20/57/57 21/58/58 33/59/59 34/50/50
f 33/59/59 32/60/60 31/61/61 34/50/50
f 31/61/61 30/62/62 29/63/63 34/50/50
f 29/63/63 28/64/64 19/65/65 34/50/50
f 19/65/65 18/66/66 27/51/51 34/50/50
